<svg width="81" height="40" viewBox="0 0 81 40" fill="none" xmlns="http://www.w3.org/2000/svg">
<g clip-path="url(#clip0_356_168)">
<path d="M3.61196 34.7653L3.47788 35.8192C3.46384 35.9323 3.47225 36.047 3.50263 36.1568C3.533 36.2666 3.58474 36.3693 3.65485 36.4589C3.72496 36.5486 3.81206 36.6234 3.91113 36.6791C4.0102 36.7348 4.11928 36.7702 4.23207 36.7834H38.3717C38.4862 36.7849 38.5998 36.7638 38.7061 36.7212C38.8124 36.6786 38.9093 36.6154 38.9913 36.5352C39.0732 36.4551 39.1387 36.3595 39.1838 36.2539C39.229 36.1484 39.253 36.035 39.2544 35.9201C39.2573 35.8847 39.2573 35.8491 39.2544 35.8136L39.1147 34.7597C39.0756 34.3653 39.1934 33.9714 39.4425 33.6637C39.6915 33.356 40.0516 33.1596 40.4444 33.1172C40.6369 33.0962 40.8318 33.1134 41.0177 33.168C41.2036 33.2226 41.377 33.3133 41.528 33.4351C41.679 33.557 41.8046 33.7074 41.8976 33.8779C41.9906 34.0485 42.0492 34.2357 42.0701 34.429L42.2041 35.4548C42.4667 37.7364 41.1762 39.7433 38.8522 39.7433H3.85777C1.55609 39.7433 0.271175 37.7364 0.533745 35.4548L0.667823 34.429C0.687352 34.2367 0.744499 34.0502 0.835987 33.8802C0.927476 33.7101 1.05151 33.5599 1.20097 33.438C1.35044 33.3161 1.52241 33.2251 1.70701 33.17C1.89161 33.115 2.08523 33.097 2.27676 33.1172C2.66996 33.161 3.03009 33.3586 3.279 33.6671C3.52792 33.9757 3.64555 34.3703 3.60637 34.7653" fill="#E8CC75"/>
<path d="M35.0643 26.8442C35.8026 26.8839 36.5265 26.6283 37.0774 26.1334C37.6282 25.6384 37.961 24.9445 38.0028 24.2038C38.0055 24.1552 38.0055 24.1066 38.0028 24.058C37.9693 22.4267 36.4889 21.3728 34.8408 21.3672H31.5056C31.1352 21.3672 30.78 21.2196 30.518 20.9567C30.2561 20.6939 30.109 20.3374 30.109 19.9658C30.109 19.5941 30.2561 19.2376 30.518 18.9748C30.78 18.7119 31.1352 18.5643 31.5056 18.5643H33.7403C35.243 18.5026 36.3995 17.5889 36.4721 16.1706C36.5447 14.6402 35.2375 13.4966 33.6453 13.4966H28.2375V26.8217H35.0643M39.1592 16.1706C39.1617 16.7553 39.0478 17.3347 38.8243 17.8747C38.6008 18.4147 38.2721 18.9045 37.8576 19.3155L37.7738 19.4108L37.8855 19.478C38.7025 19.9338 39.3887 20.5931 39.878 21.3924C40.3672 22.1917 40.643 23.1039 40.6788 24.0412C40.6983 25.5213 40.1336 26.9491 39.1079 28.013C38.0822 29.0769 36.6788 29.6905 35.2039 29.72H26.8241C26.4363 29.7141 26.0666 29.5546 25.7956 29.2763C25.5246 28.998 25.3741 28.6235 25.3771 28.2344V12.2409C25.3741 12.0447 25.4103 11.8499 25.4836 11.668C25.5569 11.4861 25.6657 11.3208 25.8037 11.1818C25.9417 11.0428 26.1061 10.9329 26.2871 10.8587C26.4681 10.7845 26.6621 10.7474 26.8576 10.7497H33.6453C35.0674 10.7105 36.4469 11.2393 37.4808 12.22C38.5146 13.2006 39.1183 14.553 39.1592 15.98V16.165" fill="#E8CC75"/>
<path d="M12.6567 24.2486L12.6958 24.3607L12.7349 24.2486C13.1148 23.1947 13.5785 22.0063 14.0645 20.7562C14.5505 19.5061 15.0701 18.1382 15.5673 16.9162C16.0645 15.6941 16.5505 14.5729 17.0086 13.6087C17.3102 12.8971 17.6847 12.2189 18.126 11.585C18.341 11.317 18.6146 11.1024 18.9255 10.9575C19.2365 10.8127 19.5765 10.7416 19.9193 10.7497H20.26C20.6474 10.7335 21.0279 10.8568 21.3327 11.0973C21.5666 11.2919 21.7184 11.5684 21.7572 11.8709L23.8857 28.4082C23.8944 28.5912 23.8668 28.7742 23.8044 28.9464C23.7421 29.1187 23.6463 29.2768 23.5226 29.4116C23.2344 29.6537 22.864 29.7743 22.4891 29.748C22.1063 29.7695 21.7277 29.6587 21.4165 29.4341C21.2789 29.3398 21.1633 29.2169 21.0775 29.0737C20.9917 28.9305 20.9377 28.7704 20.9193 28.6044C20.8466 28.0438 20.7852 27.444 20.7181 26.7713C20.6511 26.0986 20.2936 23.2228 20.1986 22.4884C20.1036 21.754 19.517 17.0731 19.3103 15.3745V15.2288L18.6287 16.6639C18.3997 17.1572 18.1483 17.7458 17.8746 18.4353C17.6008 19.1249 17.3159 19.8536 17.0533 20.6272C16.7908 21.4008 15.4388 25.1456 15.4388 25.1456C15.3159 25.4875 15.0813 26.177 14.8801 26.8273C14.679 27.4776 14.4723 28.0326 14.422 28.1391C14.1915 28.5917 13.7914 28.934 13.3095 29.0906C12.8276 29.2472 12.3034 29.2054 11.8522 28.9744C11.485 28.7904 11.1856 28.494 10.9975 28.1279C10.9416 28.0214 10.7517 27.4496 10.5338 26.8161C10.3159 26.1827 10.1036 25.4987 9.97512 25.1344C9.97512 25.1344 8.66227 21.356 8.36618 20.616C8.07009 19.8761 7.80752 19.1193 7.54495 18.4241C7.28238 17.729 7.01423 17.146 6.79076 16.6527L6.10361 15.2344V15.3802C5.89691 17.0619 5.30473 21.7484 5.20976 22.494C5.11478 23.2396 4.76841 26.0874 4.6902 26.7544C4.61199 27.4215 4.55054 28.0382 4.4835 28.5876C4.46504 28.7536 4.41105 28.9137 4.32524 29.0569C4.23943 29.2001 4.12381 29.323 3.98629 29.4172C3.67658 29.6407 3.30017 29.7514 2.91925 29.7312C2.54791 29.7563 2.18136 29.6357 1.89691 29.3948C1.77322 29.26 1.67743 29.1019 1.61509 28.9296C1.55276 28.7574 1.52512 28.5744 1.53378 28.3914L3.63434 11.8709C3.68308 11.5799 3.83605 11.3167 4.0645 11.1309C4.36384 10.877 4.74525 10.7414 5.13713 10.7497H5.47791C5.81741 10.7413 6.15436 10.8106 6.46316 10.9524C6.77196 11.0942 7.04449 11.3048 7.26004 11.5682C7.70338 12.2008 8.07795 12.8792 8.37735 13.5919C8.83545 14.5561 9.3159 15.6586 9.81869 16.8993C10.3215 18.1401 10.8243 19.4201 11.3271 20.7394C11.8131 22.0063 12.2712 23.1779 12.6511 24.2318" fill="#E8CC75"/>
<path d="M8.48842 0.748873H34.332C36.7677 0.748873 37.98 2.58199 38.2426 5.00372L38.3543 5.77733C38.3983 6.17779 38.2826 6.57946 38.0324 6.89457C37.7823 7.20969 37.418 7.41264 37.0191 7.45909C36.6278 7.49022 36.2399 7.36525 35.9398 7.11128C35.6396 6.85731 35.4513 6.49483 35.4158 6.10247L35.3041 5.35689C35.1979 4.43753 34.8124 3.72559 33.8795 3.72559H8.94652C8.01356 3.72559 7.62808 4.43753 7.51635 5.35689L7.41579 6.09126C7.38032 6.48424 7.19106 6.8471 6.88949 7.10033C6.58791 7.35356 6.1986 7.47652 5.80685 7.44228C5.60907 7.41998 5.41761 7.35877 5.24343 7.26215C5.06925 7.16553 4.91576 7.0354 4.79175 6.8792C4.66774 6.723 4.57563 6.54379 4.52071 6.35184C4.46578 6.15988 4.44911 5.95894 4.47166 5.76052L4.5778 4.98691C4.8683 2.57078 6.07501 0.732056 8.48842 0.732056" fill="#E8CC75"/>
<path d="M54.9692 18.1831C54.7905 18.8726 54.6061 19.6126 54.4106 20.4255C54.2151 21.2383 54.0195 21.9671 53.8519 22.6678C53.6843 23.3685 53.4888 24.0076 53.2933 24.5514C53.1888 24.9382 53.0465 25.3137 52.8687 25.6725C52.7592 25.8504 52.6023 25.9941 52.4157 26.0872C52.2291 26.1803 52.0203 26.2192 51.8128 26.1995C51.6239 26.1948 51.4362 26.1665 51.2542 26.1154C51.1327 26.0785 51.0203 26.0166 50.9241 25.9336C50.8279 25.8506 50.75 25.7483 50.6955 25.6333C50.5186 25.2585 50.3765 24.8682 50.2709 24.4673C50.1033 23.9067 49.9246 23.2228 49.7123 22.466C49.5 21.7092 49.338 20.9132 49.1536 20.0667C48.9692 19.2202 48.7905 18.4354 48.6452 17.7122C48.5 16.9891 48.3659 16.3668 48.2653 15.8623C48.1648 15.3578 48.1089 15.0494 48.0922 14.9429C48.0891 14.9 48.0891 14.8569 48.0922 14.814V14.7411C48.0891 14.6409 48.1098 14.5414 48.1525 14.4507C48.1952 14.3601 48.2588 14.2809 48.338 14.2198C48.5092 14.0839 48.7233 14.0143 48.9413 14.0236C49.1379 14.015 49.3325 14.0657 49.5 14.1693C49.6611 14.2901 49.7693 14.469 49.8017 14.6682C49.8017 14.6682 49.8352 14.8757 49.9022 15.2288C49.9692 15.582 50.0642 16.0024 50.1704 16.5238C50.2765 17.0451 50.3994 17.6449 50.5279 18.3008C50.6564 18.9567 50.7961 19.6238 50.9469 20.2965C51.0977 20.9692 51.2374 21.6139 51.3827 22.2474C51.5279 22.8808 51.6564 23.419 51.7849 23.8731C51.9078 23.447 52.0475 22.9593 52.1983 22.4099C52.3491 21.8606 52.5056 21.2888 52.6564 20.7282C52.8072 20.1676 52.9469 19.5565 53.0866 18.9735C53.2262 18.3905 53.3547 17.8524 53.4776 17.3366C53.6005 16.8209 53.6955 16.3892 53.7849 15.9968C53.8743 15.6044 53.9413 15.3185 53.9916 15.1279C54.048 14.9075 54.1733 14.7111 54.3491 14.5673C54.5198 14.4118 54.739 14.3207 54.9692 14.3095C55.2152 14.2981 55.4571 14.3757 55.6508 14.5281C55.8246 14.6698 55.9432 14.8682 55.986 15.0887C56.1368 15.6997 56.2821 16.3948 56.4441 17.1572C56.6061 17.9196 56.7793 18.6876 56.9525 19.4669C57.1257 20.2461 57.3156 21.0141 57.5112 21.7653C57.7067 22.5164 57.8855 23.1779 58.0698 23.7553C58.1927 23.3013 58.3324 22.7631 58.4776 22.1352C58.6229 21.5074 58.7625 20.8571 58.9134 20.1844C59.0642 19.5117 59.2151 18.8614 59.3491 18.2055C59.4832 17.5496 59.6173 16.961 59.729 16.4397C59.8408 15.9183 59.9357 15.4923 59.9972 15.1672C60.0586 14.842 60.1033 14.6626 60.1033 14.6514C60.1421 14.4562 60.2491 14.2812 60.405 14.1581C60.5719 14.0532 60.767 14.0023 60.9637 14.0123C61.1832 14.0047 61.3986 14.0741 61.5726 14.2086C61.6508 14.2706 61.7136 14.35 61.7563 14.4404C61.7989 14.5308 61.8202 14.6299 61.8184 14.7299V14.8028C61.8211 14.8476 61.8211 14.8925 61.8184 14.9373C61.8184 15.0382 61.7458 15.3409 61.6396 15.8567C61.5335 16.3724 61.405 16.9779 61.2542 17.701C61.1033 18.4242 60.9301 19.209 60.7458 20.0443C60.5614 20.8795 60.3659 21.6756 60.1871 22.4324C60.0084 23.1891 59.8296 23.8562 59.6285 24.428C59.5237 24.8256 59.3816 25.2123 59.2039 25.5829C59.0911 25.8183 58.8904 25.9995 58.6452 26.0874C58.465 26.1485 58.2767 26.1825 58.0866 26.1883C58.0103 26.1938 57.9338 26.1938 57.8575 26.1883C57.7478 26.1726 57.6394 26.1483 57.5335 26.1154C57.4136 26.0725 57.3006 26.0121 57.1983 25.936C57.0811 25.8494 56.9887 25.7334 56.9301 25.5997C56.767 25.214 56.6325 24.8168 56.5279 24.4112C56.3659 23.8506 56.1983 23.234 56.0139 22.5389C55.8296 21.8437 55.6564 21.1038 55.4553 20.3414C55.2542 19.579 55.1145 18.867 54.9637 18.2055" fill="#E8CC75"/>
<path d="M64.8521 22.6903C64.6622 23.2957 64.4946 23.8563 64.3549 24.372C64.2152 24.8878 64.07 25.3082 63.9471 25.6389C63.9174 25.862 63.8007 26.064 63.6226 26.2007C63.4445 26.3374 63.2196 26.3974 62.9973 26.3677C62.7751 26.338 62.5737 26.2209 62.4375 26.0421C62.3013 25.8634 62.2415 25.6377 62.2711 25.4147C62.27 25.3308 62.2832 25.2474 62.3102 25.168L62.5448 24.3888C62.6789 23.9516 62.8521 23.4078 63.0644 22.7463C63.2767 22.0848 63.5169 21.3785 63.7739 20.5993C64.0309 19.8201 64.299 19.0464 64.5728 18.284C64.8465 17.5216 65.1314 16.8097 65.3884 16.1538C65.603 15.6027 65.855 15.067 66.1426 14.5505C66.2241 14.3633 66.3684 14.2105 66.5504 14.1189C66.7713 14.0346 67.0071 13.9965 67.2432 14.0068C67.4859 14.0017 67.7271 14.0456 67.9527 14.1357C68.0464 14.1808 68.1303 14.2441 68.1993 14.3221C68.2684 14.4001 68.3213 14.4911 68.3549 14.5898C68.5337 14.9654 68.746 15.4755 68.9862 16.109C69.2264 16.7424 69.4946 17.432 69.7627 18.1719C70.0309 18.9119 70.3214 19.6631 70.5672 20.4143C70.813 21.1655 71.0756 21.8942 71.2934 22.5557C71.5113 23.2172 71.7013 23.7834 71.8521 24.2375C72.0029 24.6915 72.1091 25.0055 72.1426 25.1456C72.1696 25.225 72.1828 25.3084 72.1817 25.3923C72.1874 25.4969 72.1697 25.6015 72.1301 25.6985C72.0905 25.7954 72.0299 25.8823 71.9527 25.9529C71.8642 26.032 71.7607 26.0922 71.6483 26.1297C71.5359 26.1673 71.4171 26.1815 71.299 26.1715C71.1252 26.1879 70.9516 26.1379 70.813 26.0313C70.6957 25.921 70.6091 25.7819 70.5616 25.6277C70.4331 25.297 70.2879 24.8765 70.1147 24.3608C69.9415 23.8451 69.7627 23.2845 69.556 22.679H64.8353M69.0253 21.0365C68.7571 20.2181 68.5113 19.4669 68.2711 18.7942C68.0309 18.1215 67.8186 17.4768 67.5504 16.8377C67.489 16.6976 67.4219 16.5406 67.3549 16.35C67.2879 16.1594 67.2432 16.0641 67.232 16.0305C67.1796 16.1263 67.1384 16.2279 67.1091 16.3332C67.0365 16.535 66.975 16.6976 66.908 16.8377C66.6566 17.4544 66.4163 18.1047 66.1817 18.7942C65.9471 19.4837 65.7013 20.2293 65.4387 21.0365H69.0253Z" fill="#E8CC75"/>
<path d="M75.4443 21.429C75.3788 21.3632 75.319 21.2919 75.2655 21.216L75.0812 20.9581C74.9024 20.7058 74.7181 20.3975 74.5225 20.0387C74.327 19.68 74.1035 19.2988 73.8968 18.9176C73.6901 18.5364 73.489 18.1047 73.2991 17.6955C73.1091 17.2863 72.9192 16.9051 72.7683 16.5743C72.6175 16.2436 72.4722 15.9128 72.3605 15.655C72.2766 15.474 72.2074 15.2866 72.1538 15.0944C72.1321 15.0476 72.1153 14.9988 72.1035 14.9486C72.1035 14.9486 72.1035 14.8757 72.1035 14.8085C72.1029 14.704 72.1233 14.6004 72.1637 14.5041C72.204 14.4077 72.2634 14.3206 72.3382 14.2479C72.426 14.1673 72.5293 14.1054 72.6416 14.0659C72.7539 14.0264 72.873 14.0102 72.9918 14.018C73.0932 14.0066 73.1958 14.0177 73.2924 14.0507C73.3889 14.0836 73.4771 14.1376 73.5505 14.2086C73.6486 14.319 73.7262 14.4463 73.7795 14.5842L73.9639 14.9991C74.0588 15.2121 74.1762 15.4756 74.3102 15.7895C74.4443 16.1034 74.6063 16.451 74.7851 16.8322C74.9639 17.2134 75.1371 17.5778 75.3438 17.9534L75.8745 19.0017C76.0184 19.2838 76.1788 19.5571 76.3549 19.8201C76.6398 19.3738 76.8991 18.9115 77.1315 18.4355C77.4052 17.8749 77.6901 17.3423 77.9192 16.7986C78.1482 16.2548 78.3884 15.7783 78.5784 15.3691L78.908 14.5898C78.9633 14.4516 79.0428 14.3244 79.1426 14.2142C79.2141 14.1404 79.302 14.0846 79.3991 14.0514C79.4962 14.0183 79.5998 14.0088 79.7013 14.0236C79.8201 14.0151 79.9394 14.0311 80.0518 14.0706C80.1643 14.1101 80.2674 14.1724 80.3549 14.2535C80.4317 14.3247 80.4923 14.4116 80.5328 14.5083C80.5733 14.605 80.5926 14.7092 80.5896 14.8141C80.5954 14.8606 80.5954 14.9077 80.5896 14.9542L80.5449 15.1L80.327 15.6606C80.2208 15.924 80.0868 16.2211 79.9248 16.5799C79.7627 16.9387 79.5952 17.3143 79.4052 17.7011C79.2153 18.0879 79.003 18.5139 78.7963 18.9232C78.5896 19.3324 78.3829 19.708 78.1762 20.0443C77.9694 20.3807 77.7739 20.7227 77.6175 20.9693C77.5105 21.1262 77.3889 21.2726 77.2544 21.4066V25.3307C77.2598 25.445 77.2418 25.5592 77.2015 25.6663C77.1611 25.7733 77.0992 25.8709 77.0197 25.9529C76.8598 26.1114 76.644 26.2003 76.4192 26.2003C76.1944 26.2003 75.9786 26.1114 75.8186 25.9529C75.7329 25.8695 75.6653 25.7691 75.6201 25.6581C75.575 25.5472 75.5531 25.4281 75.556 25.3083V21.3842" fill="#E8CC75"/>
</g>
<defs>
<clipPath id="clip0_356_168">
<rect width="80" height="39" fill="white" transform="translate(0.5 0.748901)"/>
</clipPath>
</defs>
</svg>
