<svg width="49" height="40" viewBox="0 0 49 40" fill="none" xmlns="http://www.w3.org/2000/svg">
<path d="M31.6878 0.748901L21.8477 7.14832L22.8451 7.70168L31.5996 2.00809L46.4487 10.5301L37.9315 16.0692L38.3464 16.2993V17.0014L45.0176 12.6627L46.4178 13.4663L38.3463 18.7154V19.9174L44.887 15.6637L46.4178 16.5424L38.3463 21.7915V22.9935L44.887 18.7397L46.4178 19.6184L38.3463 24.8675V26.0695L48.4693 19.486L45.9568 18.0442L48.4692 16.4101L45.9567 14.9681L48.4691 13.3341L46.0873 11.967L48.5 10.3978L31.6877 0.748901H31.6878ZM34.8316 5.33617C32.7027 6.4185 29.8669 6.60162 27.8703 5.78557L23.9671 8.32395L36.8093 15.4468L40.5113 13.0394C39.0531 11.873 39.1745 10.1326 40.809 8.76688L34.8315 5.33617H34.8316ZM21.6163 9.1241L14.4629 13.8502L28.1862 21.8544L28.3208 21.7673C28.5738 21.6022 28.9311 21.3684 29.3573 21.0893C30.2094 20.5312 31.337 19.7912 32.4614 19.053C34.0808 17.9897 34.9152 17.4412 35.6912 16.9312L21.6163 9.1241ZM33.3012 9.24407C33.3013 9.24407 33.3014 9.24407 33.3015 9.24407C33.6252 9.24607 33.9219 9.31635 34.1435 9.44349C34.2725 9.51748 34.3725 9.60875 34.4379 9.71208C34.5032 9.81542 34.5327 9.92879 34.5245 10.0457C34.5163 10.1627 34.4707 10.2809 34.3902 10.3936C34.3097 10.5064 34.196 10.6114 34.0555 10.7028C33.915 10.7942 33.7505 10.87 33.5713 10.9261C33.3922 10.9822 33.2019 11.0174 33.0114 11.0297C32.8209 11.042 32.6339 11.0311 32.461 10.9977C32.2882 10.9643 32.1328 10.909 32.0039 10.8351C31.7435 10.6856 31.6066 10.469 31.6231 10.2329C31.6396 9.99678 31.8082 9.76047 32.0919 9.57596C32.253 9.47116 32.4455 9.38687 32.6549 9.3294C32.8643 9.27193 33.0852 9.24276 33.3012 9.24407ZM11.1975 14.0748L0.530865 21.0116L2.91274 22.3787L0.5 23.9479L3.01252 25.3898L0.5 27.024L3.01252 28.4659L0.5 30.1L17.3123 39.7489L27.4628 33.1473V31.9456L17.4005 38.4896L2.55146 29.9675L3.99402 29.0293L17.3123 36.6727L27.4628 30.0713V28.8697L17.4005 35.4137L2.55146 26.8915L3.99402 25.9534L17.3123 33.5968L27.4628 26.9954V25.7937L17.4005 32.3377L2.55146 23.8156L3.89435 22.942L17.3434 30.6606L27.4628 24.0793V23.5615L26.9082 23.2381L17.4311 29.4013L2.58253 20.8793L12.1719 14.6429L11.1974 14.0745L11.1975 14.0748ZM13.268 15.2827L8.51985 18.3704C9.9781 19.5366 9.85666 21.277 8.22213 22.6429L14.1996 26.0736C16.3285 24.9912 19.164 24.8082 21.1607 25.6241L25.8122 22.599L13.2678 15.2826L13.268 15.2827ZM36.5248 18.5832C35.7107 19.1181 34.9929 19.5902 33.4521 20.6018C32.4172 21.2815 31.382 21.9608 30.3464 22.6394C29.9196 22.9188 29.5616 23.1531 29.3063 23.3194C29.2972 23.3256 29.2934 23.3276 29.2845 23.3335V32.1434L36.5249 27.2129L36.5248 18.5832ZM16.1852 20.3754C16.5089 20.3775 16.8056 20.4478 17.0272 20.5751C17.2875 20.7245 17.4245 20.9411 17.408 21.1772C17.3915 21.4133 17.2228 21.6496 16.9391 21.8341C16.6554 22.0186 16.2799 22.1362 15.8953 22.161C15.5106 22.1858 15.1482 22.1158 14.8879 21.9664C14.6275 21.817 14.4905 21.6004 14.507 21.3643C14.5235 21.1281 14.6922 20.8918 14.9759 20.7073C15.137 20.6025 15.3295 20.5183 15.5389 20.4608C15.7483 20.4034 15.9692 20.3742 16.1852 20.3755V20.3754Z" fill="#E8CC75"/>
</svg>
