<svg width="55" height="40" viewBox="0 0 55 40" fill="none" xmlns="http://www.w3.org/2000/svg">
<path d="M6.28571 0.748901C3.11321 0.748901 0.5 3.39115 0.5 6.5989V33.8989C0.5 37.1067 3.11321 39.7489 6.28571 39.7489H48.7143C51.8868 39.7489 54.5 37.1067 54.5 33.8989V6.5989C54.5 3.39115 51.8868 0.748901 48.7143 0.748901H6.28571ZM6.28571 4.6489H48.7143C49.8039 4.6489 50.6429 5.49715 50.6429 6.5989V33.8989C50.6429 35.0007 49.8039 35.8489 48.7143 35.8489H6.28571C5.19607 35.8489 4.35714 35.0007 4.35714 33.8989V6.5989C4.35714 5.49715 5.19607 4.6489 6.28571 4.6489ZM34.0687 13.1802C30.3543 13.1802 28.4045 15.0327 28.4045 17.3844C28.4045 21.6412 33.3416 21.0504 33.3416 23.2344C33.3416 23.6107 33.0331 24.457 30.9888 24.457C28.9445 24.457 27.6138 23.7258 27.6138 23.7258L27.0159 26.5338C27.0159 26.5338 28.2791 27.3235 30.8152 27.3235C33.3416 27.3235 36.8979 25.3579 36.8979 22.507C36.8979 19.0828 31.955 18.8566 31.955 17.3298C31.955 16.5498 32.6107 15.9258 34.3657 15.9258C35.5113 15.9258 36.7764 16.8423 36.7764 16.8423L37.382 13.8588C37.382 13.8588 35.7041 13.186 34.0649 13.186L34.0687 13.1802ZM18.2197 13.4239L14.9643 23.053C14.9643 23.053 14.8023 22.2184 14.7232 21.7114C12.8814 17.5384 9.90179 15.9823 9.90179 15.9823L12.7368 26.8906H16.5939L22.0132 13.4239H18.2236H18.2197ZM23.4018 13.4239L21.2919 26.8906H24.8521L26.96 13.4239H23.4018ZM42.5679 13.4239L36.7822 26.8906H40.2768L41 25.003H45.4608L45.8214 26.8906H49.0151L46.3036 13.4239H42.5679ZM5.98293 13.4824C5.98293 13.4824 12.92 15.6372 14.5419 20.9197L13.3404 14.826C13.3404 14.826 12.8101 13.4805 11.4119 13.4805H5.98486L5.98293 13.4824ZM43.8929 17.3239L44.915 22.3822H42.0221L43.8929 17.3239Z" fill="#E8CC75"/>
</svg>
