<svg width="50" height="50" viewBox="0 0 50 50" fill="none" xmlns="http://www.w3.org/2000/svg">
<path d="M49.4291 29.9508C49.1775 29.6987 48.862 29.5198 48.5165 29.4334C48.1711 29.347 47.8086 29.3564 47.468 29.4604C43.7286 30.5911 39.7525 30.6859 35.9635 29.7347C32.1745 28.7835 28.7144 26.822 25.9521 24.0591C23.1897 21.2961 21.2286 17.8354 20.2776 14.0456C19.3266 10.2558 19.4214 6.27892 20.5518 2.53874C20.6567 2.19794 20.6668 1.83497 20.5809 1.48888C20.495 1.14279 20.3164 0.826665 20.0643 0.574513C19.8122 0.32236 19.4961 0.143716 19.1501 0.0577923C18.8041 -0.028131 18.4412 -0.0180822 18.1004 0.0868578C12.9306 1.67089 8.39186 4.84546 5.13021 9.15883C2.27782 12.9466 0.53793 17.455 0.106022 22.1773C-0.325885 26.8996 0.567298 31.6489 2.68522 35.8915C4.80315 40.134 8.06191 43.7019 12.0954 46.1941C16.1289 48.6864 20.7773 50.0043 25.5183 49.9999C31.0495 50.0169 36.4335 48.2184 40.8443 44.8803C45.1568 41.618 48.3307 37.0784 49.9144 31.9074C50.0181 31.5679 50.0278 31.2066 49.9423 30.862C49.8568 30.5174 49.6794 30.2025 49.4291 29.9508ZM38.4861 41.7468C34.3324 44.8761 29.1883 46.3992 24.0008 46.0359C18.8133 45.6726 13.9316 43.4473 10.2544 39.7696C6.57719 36.0919 4.35194 31.2094 3.98828 26.0209C3.62463 20.8324 5.14707 15.6871 8.27533 11.5323C10.3134 8.84024 12.9483 6.65803 15.9727 5.15736C15.8004 6.36669 15.7135 7.58666 15.7128 8.80821C15.7199 15.5689 18.4082 22.0507 23.1878 26.8313C27.9674 31.6118 34.4478 34.3007 41.2071 34.3078C42.4309 34.3074 43.6531 34.2206 44.8646 34.0479C43.3628 37.0734 41.1794 39.7089 38.4861 41.7468Z" fill="white"/>
</svg>
