<svg width="50" height="50" viewBox="0 0 50 50" fill="none" xmlns="http://www.w3.org/2000/svg">
<g clip-path="url(#clip0_755_1115)">
<path d="M25 4.1499C21.2286 4.1506 17.5281 5.17505 14.2932 7.11399C11.0584 9.05293 8.41052 11.8336 6.63213 15.1595C4.85373 18.4853 4.01151 22.2315 4.19529 25.9984C4.37907 29.7654 5.58196 33.4118 7.67566 36.5487C9.76935 39.6857 12.6753 42.1954 16.0835 43.8102C19.4918 45.4251 23.2744 46.0844 27.028 45.718C30.7816 45.3516 34.3654 43.9731 37.397 41.7296C40.4285 39.4861 42.7942 36.4617 44.2417 32.9791C44.9521 31.2707 43.25 29.5541 41.5375 30.2499C38.6025 31.4388 35.3436 31.5615 32.3275 30.5966C29.3113 29.6318 26.7287 27.6404 25.0287 24.9687C23.3286 22.297 22.6187 19.114 23.0222 15.9731C23.4258 12.8323 24.9173 9.93212 27.2375 7.77699L27.398 7.61032C28.5459 6.29782 27.6334 4.16657 25.8188 4.16657H25.2646L25.123 4.15407L24.998 4.1499H25Z" fill="white"/>
</g>
<defs>
<clipPath id="clip0_755_1115">
<rect width="50" height="50" fill="white"/>
</clipPath>
</defs>
</svg>
