<svg width="50" height="50" viewBox="0 0 50 50" fill="none" xmlns="http://www.w3.org/2000/svg">
<path fill-rule="evenodd" clip-rule="evenodd" d="M8.85413 39.5835C8.85413 39.1691 9.01875 38.7717 9.31177 38.4786C9.6048 38.1856 10.0022 38.021 10.4166 38.021H39.5833C39.9977 38.021 40.3951 38.1856 40.6882 38.4786C40.9812 38.7717 41.1458 39.1691 41.1458 39.5835C41.1458 39.9979 40.9812 40.3953 40.6882 40.6884C40.3951 40.9814 39.9977 41.146 39.5833 41.146H10.4166C10.0022 41.146 9.6048 40.9814 9.31177 40.6884C9.01875 40.3953 8.85413 39.9979 8.85413 39.5835ZM15.1041 45.8335C15.1041 45.4191 15.2687 45.0217 15.5618 44.7286C15.8548 44.4356 16.2522 44.271 16.6666 44.271H33.3333C33.7477 44.271 34.1451 44.4356 34.4382 44.7286C34.7312 45.0217 34.8958 45.4191 34.8958 45.8335C34.8958 46.2479 34.7312 46.6453 34.4382 46.9384C34.1451 47.2314 33.7477 47.396 33.3333 47.396H16.6666C16.2522 47.396 15.8548 47.2314 15.5618 46.9384C15.2687 46.6453 15.1041 46.2479 15.1041 45.8335Z" fill="#1D2F57"/>
<path d="M12.6729 31.7708C11.4977 29.6294 10.9006 27.2189 10.9404 24.7766C10.9801 22.3343 11.6553 19.9445 12.8995 17.8425C14.1437 15.7404 15.9139 13.9988 18.0359 12.7889C20.1579 11.5791 22.5584 10.9429 25.001 10.9429C27.4436 10.9429 29.8441 11.5791 31.9661 12.7889C34.0881 13.9988 35.8583 15.7404 37.1025 17.8425C38.3467 19.9445 39.0219 22.3343 39.0616 24.7766C39.1014 27.2189 38.5043 29.6294 37.3291 31.7708H45.8333C46.2477 31.7708 46.6451 31.9354 46.9382 32.2285C47.2312 32.5215 47.3958 32.9189 47.3958 33.3333C47.3958 33.7477 47.2312 34.1451 46.9382 34.4382C46.6451 34.7312 46.2477 34.8958 45.8333 34.8958H4.16663C3.75223 34.8958 3.3548 34.7312 3.06177 34.4382C2.76875 34.1451 2.60413 33.7477 2.60413 33.3333C2.60413 32.9189 2.76875 32.5215 3.06177 32.2285C3.3548 31.9354 3.75223 31.7708 4.16663 31.7708H12.6729Z" fill="#1D2F57"/>
<path fill-rule="evenodd" clip-rule="evenodd" d="M25 2.60425C25.4144 2.60425 25.8118 2.76887 26.1048 3.06189C26.3978 3.35492 26.5625 3.75235 26.5625 4.16675V6.25008C26.5625 6.66448 26.3978 7.06191 26.1048 7.35494C25.8118 7.64796 25.4144 7.81258 25 7.81258C24.5856 7.81258 24.1881 7.64796 23.8951 7.35494C23.6021 7.06191 23.4375 6.66448 23.4375 6.25008V4.16675C23.4375 3.75235 23.6021 3.35492 23.8951 3.06189C24.1881 2.76887 24.5856 2.60425 25 2.60425ZM9.16454 9.16467C9.45751 8.87206 9.85465 8.70771 10.2687 8.70771C10.6828 8.70771 11.0799 8.87206 11.3729 9.16467L12.1916 9.98133C12.4764 10.2759 12.6341 10.6705 12.6307 11.0802C12.6273 11.4899 12.4632 11.8819 12.1736 12.1717C11.8841 12.4615 11.4922 12.626 11.0826 12.6298C10.6729 12.6335 10.2781 12.4762 9.98329 12.1917L9.16454 11.373C8.87194 11.08 8.70758 10.6829 8.70758 10.2688C8.70758 9.85477 8.87194 9.45764 9.16454 9.16467ZM40.8354 9.16467C41.128 9.45764 41.2923 9.85477 41.2923 10.2688C41.2923 10.6829 41.128 11.08 40.8354 11.373L40.0166 12.1917C39.7204 12.4677 39.3287 12.618 38.9239 12.6109C38.5191 12.6037 38.1329 12.4397 37.8466 12.1535C37.5603 11.8672 37.3963 11.481 37.3892 11.0762C37.382 10.6714 37.5323 10.2796 37.8083 9.98341L38.627 9.16467C38.92 8.87206 39.3171 8.70771 39.7312 8.70771C40.1453 8.70771 40.5424 8.87206 40.8354 9.16467ZM2.60413 25.0001C2.60413 24.5857 2.76875 24.1883 3.06177 23.8952C3.3548 23.6022 3.75223 23.4376 4.16663 23.4376H6.24996C6.66436 23.4376 7.06179 23.6022 7.35481 23.8952C7.64784 24.1883 7.81246 24.5857 7.81246 25.0001C7.81246 25.4145 7.64784 25.8119 7.35481 26.1049C7.06179 26.398 6.66436 26.5626 6.24996 26.5626H4.16663C3.75223 26.5626 3.3548 26.398 3.06177 26.1049C2.76875 25.8119 2.60413 25.4145 2.60413 25.0001ZM42.1875 25.0001C42.1875 24.5857 42.3521 24.1883 42.6451 23.8952C42.9381 23.6022 43.3356 23.4376 43.75 23.4376H45.8333C46.2477 23.4376 46.6451 23.6022 46.9382 23.8952C47.2312 24.1883 47.3958 24.5857 47.3958 25.0001C47.3958 25.4145 47.2312 25.8119 46.9382 26.1049C46.6451 26.398 46.2477 26.5626 45.8333 26.5626H43.75C43.3356 26.5626 42.9381 26.398 42.6451 26.1049C42.3521 25.8119 42.1875 25.4145 42.1875 25.0001Z" fill="#1D2F57"/>
</svg>
