<svg width="48" height="48" viewBox="0 0 48 48" fill="none" xmlns="http://www.w3.org/2000/svg">
<path d="M22.4375 6.8125V2.125C22.4375 1.7106 22.6021 1.31317 22.8951 1.02015C23.1882 0.72712 23.5856 0.5625 24 0.5625C24.4144 0.5625 24.8118 0.72712 25.1049 1.02015C25.3979 1.31317 25.5625 1.7106 25.5625 2.125V6.8125C25.5625 7.2269 25.3979 7.62433 25.1049 7.91735C24.8118 8.21038 24.4144 8.375 24 8.375C23.5856 8.375 23.1882 8.21038 22.8951 7.91735C22.6021 7.62433 22.4375 7.2269 22.4375 6.8125ZM24 11.5C21.5277 11.5 19.111 12.2331 17.0554 13.6066C14.9998 14.9801 13.3976 16.9324 12.4515 19.2165C11.5054 21.5005 11.2579 24.0139 11.7402 26.4386C12.2225 28.8634 13.413 31.0907 15.1612 32.8388C16.9093 34.587 19.1366 35.7775 21.5614 36.2598C23.9861 36.7421 26.4995 36.4946 28.7835 35.5485C31.0676 34.6024 33.0199 33.0002 34.3934 30.9446C35.7669 28.889 36.5 26.4723 36.5 24C36.4964 20.6859 35.1783 17.5086 32.8348 15.1652C30.4914 12.8217 27.3141 11.5036 24 11.5ZM10.3945 12.6055C10.6877 12.8987 11.0854 13.0634 11.5 13.0634C11.9146 13.0634 12.3123 12.8987 12.6055 12.6055C12.8987 12.3123 13.0634 11.9146 13.0634 11.5C13.0634 11.0854 12.8987 10.6877 12.6055 10.3945L9.48047 7.26953C9.18728 6.97634 8.78963 6.81163 8.375 6.81163C7.96037 6.81163 7.56272 6.97634 7.26953 7.26953C6.97634 7.56272 6.81163 7.96037 6.81163 8.375C6.81163 8.78963 6.97634 9.18728 7.26953 9.48047L10.3945 12.6055ZM10.3945 35.3945L7.26953 38.5195C6.97634 38.8127 6.81163 39.2104 6.81163 39.625C6.81163 40.0396 6.97634 40.4373 7.26953 40.7305C7.56272 41.0237 7.96037 41.1884 8.375 41.1884C8.78963 41.1884 9.18728 41.0237 9.48047 40.7305L12.6055 37.6055C12.7506 37.4603 12.8658 37.288 12.9444 37.0983C13.0229 36.9086 13.0634 36.7053 13.0634 36.5C13.0634 36.2947 13.0229 36.0914 12.9444 35.9017C12.8658 35.712 12.7506 35.5397 12.6055 35.3945C12.4603 35.2494 12.288 35.1342 12.0983 35.0556C11.9086 34.9771 11.7053 34.9366 11.5 34.9366C11.2947 34.9366 11.0914 34.9771 10.9017 35.0556C10.712 35.1342 10.5397 35.2494 10.3945 35.3945ZM36.5 13.0625C36.7053 13.0627 36.9085 13.0224 37.0982 12.944C37.2879 12.8655 37.4603 12.7505 37.6055 12.6055L40.7305 9.48047C41.0237 9.18728 41.1884 8.78963 41.1884 8.375C41.1884 7.96037 41.0237 7.56272 40.7305 7.26953C40.4373 6.97634 40.0396 6.81163 39.625 6.81163C39.2104 6.81163 38.8127 6.97634 38.5195 7.26953L35.3945 10.3945C35.1758 10.6131 35.0268 10.8916 34.9664 11.1948C34.906 11.4981 34.9369 11.8124 35.0553 12.0981C35.1736 12.3838 35.3741 12.6279 35.6313 12.7996C35.8885 12.9712 36.1908 13.0627 36.5 13.0625ZM37.6055 35.3945C37.3123 35.1013 36.9146 34.9366 36.5 34.9366C36.0854 34.9366 35.6877 35.1013 35.3945 35.3945C35.1013 35.6877 34.9366 36.0854 34.9366 36.5C34.9366 36.9146 35.1013 37.3123 35.3945 37.6055L38.5195 40.7305C38.6647 40.8756 38.837 40.9908 39.0267 41.0694C39.2164 41.1479 39.4197 41.1884 39.625 41.1884C39.8303 41.1884 40.0336 41.1479 40.2233 41.0694C40.413 40.9908 40.5853 40.8756 40.7305 40.7305C40.8756 40.5853 40.9908 40.413 41.0694 40.2233C41.1479 40.0336 41.1884 39.8303 41.1884 39.625C41.1884 39.4197 41.1479 39.2164 41.0694 39.0267C40.9908 38.837 40.8756 38.6647 40.7305 38.5195L37.6055 35.3945ZM8.375 24C8.375 23.5856 8.21038 23.1882 7.91735 22.8951C7.62433 22.6021 7.2269 22.4375 6.8125 22.4375H2.125C1.7106 22.4375 1.31317 22.6021 1.02015 22.8951C0.72712 23.1882 0.5625 23.5856 0.5625 24C0.5625 24.4144 0.72712 24.8118 1.02015 25.1049C1.31317 25.3979 1.7106 25.5625 2.125 25.5625H6.8125C7.2269 25.5625 7.62433 25.3979 7.91735 25.1049C8.21038 24.8118 8.375 24.4144 8.375 24ZM24 39.625C23.5856 39.625 23.1882 39.7896 22.8951 40.0826C22.6021 40.3757 22.4375 40.7731 22.4375 41.1875V45.875C22.4375 46.2894 22.6021 46.6868 22.8951 46.9799C23.1882 47.2729 23.5856 47.4375 24 47.4375C24.4144 47.4375 24.8118 47.2729 25.1049 46.9799C25.3979 46.6868 25.5625 46.2894 25.5625 45.875V41.1875C25.5625 40.7731 25.3979 40.3757 25.1049 40.0826C24.8118 39.7896 24.4144 39.625 24 39.625ZM45.875 22.4375H41.1875C40.7731 22.4375 40.3757 22.6021 40.0826 22.8951C39.7896 23.1882 39.625 23.5856 39.625 24C39.625 24.4144 39.7896 24.8118 40.0826 25.1049C40.3757 25.3979 40.7731 25.5625 41.1875 25.5625H45.875C46.2894 25.5625 46.6868 25.3979 46.9799 25.1049C47.2729 24.8118 47.4375 24.4144 47.4375 24C47.4375 23.5856 47.2729 23.1882 46.9799 22.8951C46.6868 22.6021 46.2894 22.4375 45.875 22.4375Z" fill="#E8CC75"/>
</svg>
