<svg width="66" height="66" viewBox="0 0 66 66" fill="none" xmlns="http://www.w3.org/2000/svg">
<path d="M30.9375 10.3125V4.125C30.9375 3.57799 31.1548 3.05339 31.5416 2.66659C31.9284 2.2798 32.453 2.0625 33 2.0625C33.547 2.0625 34.0716 2.2798 34.4584 2.66659C34.8452 3.05339 35.0625 3.57799 35.0625 4.125V10.3125C35.0625 10.8595 34.8452 11.3841 34.4584 11.7709C34.0716 12.1577 33.547 12.375 33 12.375C32.453 12.375 31.9284 12.1577 31.5416 11.7709C31.1548 11.3841 30.9375 10.8595 30.9375 10.3125ZM49.5 33C49.5 36.2634 48.5323 39.4535 46.7192 42.1669C44.9062 44.8803 42.3293 46.9952 39.3143 48.244C36.2993 49.4929 32.9817 49.8196 29.781 49.183C26.5803 48.5463 23.6403 46.9748 21.3327 44.6673C19.0252 42.3597 17.4537 39.4197 16.817 36.219C16.1804 33.0183 16.5071 29.7007 17.756 26.6857C19.0048 23.6707 21.1197 21.0938 23.8331 19.2808C26.5465 17.4677 29.7366 16.5 33 16.5C37.3746 16.5048 41.5687 18.2447 44.662 21.338C47.7553 24.4313 49.4952 28.6254 49.5 33ZM45.375 33C45.375 30.5525 44.6492 28.1599 43.2894 26.1248C41.9297 24.0898 39.9969 22.5036 37.7357 21.567C35.4745 20.6304 32.9863 20.3853 30.5858 20.8628C28.1852 21.3403 25.9802 22.5189 24.2496 24.2496C22.5189 25.9802 21.3403 28.1852 20.8628 30.5858C20.3853 32.9863 20.6304 35.4745 21.567 37.7357C22.5036 39.9969 24.0898 41.9297 26.1248 43.2894C28.1599 44.6492 30.5525 45.375 33 45.375C36.281 45.3716 39.4267 44.0667 41.7467 41.7467C44.0667 39.4267 45.3716 36.281 45.375 33ZM15.0408 17.9592C15.4278 18.3462 15.9527 18.5636 16.5 18.5636C17.0473 18.5636 17.5722 18.3462 17.9592 17.9592C18.3462 17.5722 18.5636 17.0473 18.5636 16.5C18.5636 15.9527 18.3462 15.4278 17.9592 15.0408L13.8342 10.9158C13.4472 10.5288 12.9223 10.3114 12.375 10.3114C11.8277 10.3114 11.3028 10.5288 10.9158 10.9158C10.5288 11.3028 10.3114 11.8277 10.3114 12.375C10.3114 12.9223 10.5288 13.4472 10.9158 13.8342L15.0408 17.9592ZM15.0408 48.0408L10.9158 52.1658C10.5288 52.5528 10.3114 53.0777 10.3114 53.625C10.3114 54.1723 10.5288 54.6972 10.9158 55.0842C11.3028 55.4712 11.8277 55.6886 12.375 55.6886C12.9223 55.6886 13.4472 55.4712 13.8342 55.0842L17.9592 50.9592C18.1508 50.7676 18.3029 50.5401 18.4066 50.2897C18.5103 50.0394 18.5636 49.771 18.5636 49.5C18.5636 49.229 18.5103 48.9606 18.4066 48.7103C18.3029 48.4599 18.1508 48.2324 17.9592 48.0408C17.7676 47.8492 17.5401 47.6971 17.2897 47.5934C17.0394 47.4897 16.771 47.4364 16.5 47.4364C16.229 47.4364 15.9606 47.4897 15.7103 47.5934C15.4599 47.6971 15.2324 47.8492 15.0408 48.0408ZM49.5 18.5625C49.7709 18.5627 50.0393 18.5095 50.2896 18.406C50.54 18.3025 50.7675 18.1507 50.9592 17.9592L55.0842 13.8342C55.4712 13.4472 55.6886 12.9223 55.6886 12.375C55.6886 11.8277 55.4712 11.3028 55.0842 10.9158C54.6972 10.5288 54.1723 10.3114 53.625 10.3114C53.0777 10.3114 52.5528 10.5288 52.1658 10.9158L48.0408 15.0408C47.752 15.3292 47.5553 15.6969 47.4756 16.0972C47.3959 16.4975 47.4367 16.9124 47.593 17.2895C47.7492 17.6666 48.0138 17.9888 48.3533 18.2154C48.6928 18.442 49.0918 18.5628 49.5 18.5625ZM50.9592 48.0408C50.5722 47.6538 50.0473 47.4364 49.5 47.4364C48.9527 47.4364 48.4278 47.6538 48.0408 48.0408C47.6538 48.4278 47.4364 48.9527 47.4364 49.5C47.4364 50.0473 47.6538 50.5722 48.0408 50.9592L52.1658 55.0842C52.3574 55.2758 52.5849 55.4279 52.8353 55.5316C53.0856 55.6353 53.354 55.6886 53.625 55.6886C53.896 55.6886 54.1644 55.6353 54.4147 55.5316C54.6651 55.4279 54.8926 55.2758 55.0842 55.0842C55.2758 54.8926 55.4279 54.6651 55.5316 54.4147C55.6353 54.1644 55.6886 53.896 55.6886 53.625C55.6886 53.354 55.6353 53.0856 55.5316 52.8353C55.4279 52.5849 55.2758 52.3574 55.0842 52.1658L50.9592 48.0408ZM12.375 33C12.375 32.453 12.1577 31.9284 11.7709 31.5416C11.3841 31.1548 10.8595 30.9375 10.3125 30.9375H4.125C3.57799 30.9375 3.05339 31.1548 2.66659 31.5416C2.2798 31.9284 2.0625 32.453 2.0625 33C2.0625 33.547 2.2798 34.0716 2.66659 34.4584C3.05339 34.8452 3.57799 35.0625 4.125 35.0625H10.3125C10.8595 35.0625 11.3841 34.8452 11.7709 34.4584C12.1577 34.0716 12.375 33.547 12.375 33ZM33 53.625C32.453 53.625 31.9284 53.8423 31.5416 54.2291C31.1548 54.6159 30.9375 55.1405 30.9375 55.6875V61.875C30.9375 62.422 31.1548 62.9466 31.5416 63.3334C31.9284 63.7202 32.453 63.9375 33 63.9375C33.547 63.9375 34.0716 63.7202 34.4584 63.3334C34.8452 62.9466 35.0625 62.422 35.0625 61.875V55.6875C35.0625 55.1405 34.8452 54.6159 34.4584 54.2291C34.0716 53.8423 33.547 53.625 33 53.625ZM61.875 30.9375H55.6875C55.1405 30.9375 54.6159 31.1548 54.2291 31.5416C53.8423 31.9284 53.625 32.453 53.625 33C53.625 33.547 53.8423 34.0716 54.2291 34.4584C54.6159 34.8452 55.1405 35.0625 55.6875 35.0625H61.875C62.422 35.0625 62.9466 34.8452 63.3334 34.4584C63.7202 34.0716 63.9375 33.547 63.9375 33C63.9375 32.453 63.7202 31.9284 63.3334 31.5416C62.9466 31.1548 62.422 30.9375 61.875 30.9375Z" fill="#D3A740"/>
</svg>
