<svg width="17" height="19" viewBox="0 0 17 19" fill="none" xmlns="http://www.w3.org/2000/svg">
<path fill-rule="evenodd" clip-rule="evenodd" d="M12.9558 0.318482C10.0003 -0.106161 6.99927 -0.106161 4.04377 0.318482C3.33176 0.420575 2.67498 0.759795 2.17959 1.28131C1.68421 1.80283 1.37916 2.47616 1.31377 3.19248L1.18777 4.58848C0.89444 7.81316 0.89444 11.0578 1.18777 14.2825L1.31477 15.6785C1.38012 16.3947 1.68501 17.0679 2.1802 17.5894C2.67539 18.1109 3.33194 18.4502 4.04377 18.5525C6.99877 18.9775 10.0008 18.9775 12.9558 18.5525C13.6678 18.4504 14.3246 18.1112 14.82 17.5897C15.3153 17.0681 15.6204 16.3948 15.6858 15.6785L15.8118 14.2825C16.1048 11.0575 16.1048 7.81248 15.8118 4.58848L15.6848 3.19248C15.6196 2.47625 15.3148 1.80293 14.8195 1.2814C14.3243 0.75987 13.6677 0.420612 12.9558 0.318482ZM6.49977 6.43548C6.49977 5.90505 6.71049 5.39634 7.08556 5.02127C7.46063 4.6462 7.96934 4.43548 8.49977 4.43548C9.03021 4.43548 9.53891 4.6462 9.91399 5.02127C10.2891 5.39634 10.4998 5.90505 10.4998 6.43548C10.4998 6.96592 10.2891 7.47462 9.91399 7.8497C9.53891 8.22477 9.03021 8.43548 8.49977 8.43548C7.96934 8.43548 7.46063 8.22477 7.08556 7.8497C6.71049 7.47462 6.49977 6.96592 6.49977 6.43548ZM4.49977 12.9355C4.49977 12.1398 4.81584 11.3768 5.37845 10.8142C5.94106 10.2516 6.70412 9.93548 7.49977 9.93548H9.49977C10.2954 9.93548 11.0585 10.2516 11.6211 10.8142C12.1837 11.3768 12.4998 12.1398 12.4998 12.9355C12.4998 13.2007 12.3944 13.4551 12.2069 13.6426C12.0193 13.8301 11.765 13.9355 11.4998 13.9355H5.49977C5.23456 13.9355 4.9802 13.8301 4.79267 13.6426C4.60513 13.4551 4.49977 13.2007 4.49977 12.9355Z" fill="#E8CC75"/>
</svg>
