<svg width="19" height="21" viewBox="0 0 19 21" fill="none" xmlns="http://www.w3.org/2000/svg">
<path d="M16 3.02722L14.776 0.580222C14.693 0.414141 14.5654 0.274443 14.4075 0.176774C14.2496 0.0791048 14.0677 0.0273208 13.882 0.0272217H5.118C4.93234 0.0273208 4.75037 0.0791048 4.59247 0.176774C4.43458 0.274443 4.30699 0.414141 4.224 0.580222L3 3.02722H0.5V5.02722H18.5V3.02722H16ZM4.234 19.1692C4.305 19.6612 4.727 20.0272 5.225 20.0272H13.776C14.0166 20.0273 14.2492 19.9405 14.4311 19.7829C14.6129 19.6253 14.7318 19.4074 14.766 19.1692L16.5 7.02722H2.5L4.234 19.1692ZM13.5 10.0272L12.786 15.0272H6.214L5.5 10.0272H13.5Z" fill="#E8CC75"/>
</svg>
