<svg width="21" height="21" viewBox="0 0 21 21" fill="none" xmlns="http://www.w3.org/2000/svg">
<path d="M11.5 10.2022L13.75 12.4522C13.9333 12.6356 14.025 12.8649 14.025 13.1402C14.025 13.4156 13.9333 13.6529 13.75 13.8522C13.55 14.0522 13.3123 14.1522 13.037 14.1522C12.7617 14.1522 12.5243 14.0522 12.325 13.8522L9.8 11.3272C9.7 11.2272 9.625 11.1146 9.575 10.9892C9.525 10.8639 9.5 10.7349 9.5 10.6022V7.02722C9.5 6.74389 9.596 6.50622 9.788 6.31422C9.98 6.12222 10.2173 6.02656 10.5 6.02722C10.7833 6.02722 11.021 6.12322 11.213 6.31522C11.405 6.50722 11.5007 6.74455 11.5 7.02722V10.2022ZM10.5 4.02722C10.2167 4.02722 9.979 3.93122 9.787 3.73922C9.595 3.54722 9.49933 3.30989 9.5 3.02722V2.02722H11.5V3.02722C11.5 3.31055 11.404 3.54822 11.212 3.74022C11.02 3.93222 10.7827 4.02789 10.5 4.02722ZM16.5 10.0272C16.5 9.74389 16.596 9.50622 16.788 9.31422C16.98 9.12222 17.2173 9.02656 17.5 9.02722H18.5V11.0272H17.5C17.2167 11.0272 16.979 10.9312 16.787 10.7392C16.595 10.5472 16.4993 10.3099 16.5 10.0272ZM10.5 16.0272C10.7833 16.0272 11.021 16.1232 11.213 16.3152C11.405 16.5072 11.5007 16.7446 11.5 17.0272V18.0272H9.5V17.0272C9.5 16.7439 9.596 16.5062 9.788 16.3142C9.98 16.1222 10.2173 16.0266 10.5 16.0272ZM4.5 10.0272C4.5 10.3106 4.404 10.5482 4.212 10.7402C4.02 10.9322 3.78267 11.0279 3.5 11.0272H2.5V9.02722H3.5C3.78333 9.02722 4.021 9.12322 4.213 9.31522C4.405 9.50722 4.50067 9.74456 4.5 10.0272ZM10.5 20.0272C9.11667 20.0272 7.81667 19.7646 6.6 19.2392C5.38333 18.7139 4.325 18.0016 3.425 17.1022C2.525 16.2022 1.81267 15.1439 1.288 13.9272C0.763333 12.7106 0.500667 11.4106 0.5 10.0272C0.5 8.64389 0.762667 7.34389 1.288 6.12722C1.81333 4.91056 2.52567 3.85222 3.425 2.95222C4.325 2.05222 5.38333 1.33989 6.6 0.815222C7.81667 0.290555 9.11667 0.0278883 10.5 0.0272217C11.8833 0.0272217 13.1833 0.289888 14.4 0.815222C15.6167 1.34056 16.675 2.05289 17.575 2.95222C18.475 3.85222 19.1877 4.91056 19.713 6.12722C20.2383 7.34389 20.5007 8.64389 20.5 10.0272C20.5 11.4106 20.2373 12.7106 19.712 13.9272C19.1867 15.1439 18.4743 16.2022 17.575 17.1022C16.675 18.0022 15.6167 18.7149 14.4 19.2402C13.1833 19.7656 11.8833 20.0279 10.5 20.0272ZM18.5 10.0272C18.5 7.79389 17.725 5.90222 16.175 4.35222C14.625 2.80222 12.7333 2.02722 10.5 2.02722C8.26667 2.02722 6.375 2.80222 4.825 4.35222C3.275 5.90222 2.5 7.79389 2.5 10.0272C2.5 12.2606 3.275 14.1522 4.825 15.7022C6.375 17.2522 8.26667 18.0272 10.5 18.0272C12.7333 18.0272 14.625 17.2522 16.175 15.7022C17.725 14.1522 18.5 12.2606 18.5 10.0272Z" fill="#E8CC75"/>
</svg>
