<svg width="25" height="25" viewBox="0 0 25 25" fill="none" xmlns="http://www.w3.org/2000/svg">
<path d="M9.54874 4.9591e-08C8.29483 -0.000127746 7.05317 0.246742 5.89467 0.726512C4.73617 1.20628 3.68352 1.90955 2.79682 2.79617C1.91013 3.68279 1.20676 4.73539 0.726874 5.89386C0.246993 7.05232 4.30833e-08 8.29397 4.95954e-08 9.54791C-0.000127759 10.8019 0.246771 12.0437 0.726595 13.2023C1.20642 14.3608 1.90977 15.4135 2.79648 16.3003C3.68319 17.187 4.73588 17.8903 5.89445 18.3702C7.05301 18.85 8.29475 19.0969 9.54874 19.0968C11.7771 19.0968 13.8234 18.3076 15.4485 17.029L16.2999 17.8804C16.1251 18.2201 16.0632 18.6068 16.1232 18.9841C16.1832 19.3614 16.3621 19.7097 16.6337 19.9784L21.104 24.4789C21.7978 25.1737 22.9333 25.1737 23.6281 24.4789L24.4795 23.6275C24.8129 23.292 25 22.8383 25 22.3654C25 21.8925 24.8129 21.4387 24.4795 21.1033L19.9791 16.6329C19.7085 16.3631 19.3581 16.1879 18.98 16.1332C18.6018 16.0785 18.2161 16.1473 17.8802 16.3293L17.0287 15.4779C18.1432 14.0715 18.8388 12.3794 19.0358 10.5958C19.2327 8.8121 18.923 7.00905 18.1422 5.39335C17.3614 3.77765 16.141 2.4147 14.6211 1.46077C13.1012 0.506852 11.3432 0.000577272 9.54874 4.9591e-08ZM9.54874 1.76323C11.6133 1.76323 13.5934 2.5834 15.0533 4.04331C16.5132 5.50322 17.3333 7.48328 17.3333 9.54791C17.3333 11.6125 16.5132 13.5926 15.0533 15.0525C13.5934 16.5124 11.6133 17.3326 9.54874 17.3326C7.48415 17.3326 5.50411 16.5124 4.04422 15.0525C2.58434 13.5926 1.76418 11.6125 1.76418 9.54791C1.76418 7.48328 2.58434 5.50322 4.04422 4.04331C5.50411 2.5834 7.48415 1.76323 9.54874 1.76323ZM4.62209 7.08503C4.10308 7.92568 3.82941 8.89469 3.83195 9.88265C3.8308 10.5818 3.96766 11.2744 4.2347 11.9206C4.50173 12.5668 4.89368 13.1539 5.38808 13.6483C5.88248 14.1427 6.4696 14.5347 7.11578 14.8017C7.76196 15.0687 8.45449 15.2056 9.15368 15.2044C10.2528 15.2022 11.3248 14.8625 12.2247 14.2314C11.9821 14.2538 11.7385 14.2636 11.4949 14.2606C10.5918 14.2629 9.6971 14.0867 8.86227 13.7422C8.02745 13.3977 7.26892 12.8916 6.63028 12.253C5.99163 11.6145 5.48545 10.856 5.14082 10.0212C4.79619 9.18642 4.6199 8.29176 4.62209 7.38863C4.62209 7.28743 4.61722 7.18623 4.62209 7.08503Z" fill="#E8CC75"/>
</svg>
