<svg width="21" height="20" viewBox="0 0 21 20" fill="none" xmlns="http://www.w3.org/2000/svg">
<path d="M6.29832 11.0772L2.10831 6.89716C1.35916 6.14585 0.938477 5.12815 0.938477 4.06717C0.938477 3.00618 1.35916 1.98848 2.10831 1.23717L9.12831 8.23716L6.29832 11.0772ZM13.0783 9.26717L11.6083 10.7372L18.4883 17.6172L17.0783 19.0272L10.1983 12.1472L3.31831 19.0272L1.90831 17.6172L11.6683 7.85716C10.9583 6.32716 11.4583 4.17717 13.0483 2.58716C14.9583 0.667165 17.6983 0.307165 19.1583 1.76717C20.6283 3.23717 20.2683 5.97716 18.3483 7.88716C16.7583 9.47716 14.6083 9.97717 13.0783 9.26717Z" fill="#E8CC75"/>
</svg>
