<svg width="51" height="36" viewBox="0 0 51 36" fill="none" xmlns="http://www.w3.org/2000/svg">
<path fill-rule="evenodd" clip-rule="evenodd" d="M3.64932 24C1.16462 24 -0.00887275 26.8325 2.00552 28.2871C8.27194 32.8122 16.5865 35.5 25.4445 35.5C34.3026 35.5 42.6171 32.8122 48.8835 28.2871C50.8979 26.8325 49.7244 24 47.2397 24C46.6172 24 46.0148 24.2064 45.5052 24.564C40.3122 28.2084 33.3477 30.5 25.4445 30.5C17.5413 30.5 10.5769 28.2084 5.3839 24.564C4.87431 24.2064 4.27187 24 3.64932 24Z" fill="#E8CC75"/>
<path fill-rule="evenodd" clip-rule="evenodd" d="M19.2398 18C15.2778 18 14.4073 22.1532 18.3089 22.8427C20.7495 23.274 23.2726 23.5 25.8413 23.5C28.4101 23.5 30.9331 23.274 33.3738 22.8427C37.2753 22.1532 36.4049 18 32.4428 18C32.2338 18 32.0252 18.0173 31.8186 18.049C29.8999 18.3441 27.9025 18.5 25.8413 18.5C23.7801 18.5 21.7828 18.3441 19.8641 18.049C19.6574 18.0173 19.4488 18 19.2398 18Z" fill="#E8CC75"/>
<path fill-rule="evenodd" clip-rule="evenodd" d="M4.04679 0C1.56208 0 0.388588 2.83249 2.40298 4.28712C8.66941 8.81224 16.984 11.5 25.842 11.5C34.7 11.5 43.0146 8.81224 49.281 4.28713C51.2954 2.83249 50.1219 0 47.6372 0C47.0147 0 46.4122 0.206389 45.9026 0.564008C40.7097 4.20835 33.7452 6.5 25.842 6.5C17.9388 6.5 10.9743 4.20835 5.78136 0.564008C5.27177 0.206389 4.66934 0 4.04679 0Z" fill="#E8CC75"/>
</svg>
